# xmcd
#
# Track frame offsets: 
#        150
#        13920
#        41670
#        53610
#        63642
#        76702
#        90765
#        101030
#        114725
#        137470
#
# Disc length: 2242 seconds
#
# Revision: 0
# Processed by: cddbd v1.5.2PL0 Copyright (c) Steve Scherf et al.
# Submitted via: ExactAudioCopyFreeDBPlugin 1.0
#
DISCID=7608c00a
DTITLE=Aretha Franklin - Joy to the World 
DYEAR=2006
DGENRE=R&B
TTITLE0=Joy to the World
TTITLE1=Oh Happy Day
TTITLE2=Over the Rainbow
TTITLE3=Winter Wonderland
TTITLE4=The Christmas Song (Chestnuts Roasting on an Open Fire)
TTITLE5=Kissin' by the Misletoe
TTITLE6=Ac-Cent-Tchu-Ate the Positive
TTITLE7=God Bless the Child
TTITLE8=The Lord's Prayer
TTITLE9=Ave Maria
EXTD=
EXTT0=
EXTT1=
EXTT2=
EXTT3=
EXTT4=
EXTT5=
EXTT6=
EXTT7=
EXTT8=
EXTT9=
PLAYORDER=
